<svg width="204" height="38" viewBox="0 0 204 38" fill="none" xmlns="http://www.w3.org/2000/svg">
<rect x="1" y="1" width="202" height="36" fill="#F7F7F7" stroke="black" stroke-width="2"/>
<g filter="url(#filter0_d)">
<path d="M33.736 10.272V27H31.552V19.416H23.032V27H20.848V10.272H23.032V17.616H31.552V10.272H33.736ZM43.2012 27.216C41.9692 27.216 40.8492 26.936 39.8412 26.376C38.8492 25.816 38.0652 25.024 37.4892 24C36.9292 22.96 36.6492 21.76 36.6492 20.4C36.6492 19.056 36.9372 17.872 37.5132 16.848C38.1052 15.808 38.9052 15.016 39.9132 14.472C40.9212 13.912 42.0492 13.632 43.2972 13.632C44.5452 13.632 45.6732 13.912 46.6812 14.472C47.6892 15.016 48.4812 15.8 49.0572 16.824C49.6492 17.848 49.9452 19.04 49.9452 20.4C49.9452 21.76 49.6412 22.96 49.0332 24C48.4412 25.024 47.6332 25.816 46.6092 26.376C45.5852 26.936 44.4492 27.216 43.2012 27.216ZM43.2012 25.296C43.9852 25.296 44.7212 25.112 45.4092 24.744C46.0972 24.376 46.6492 23.824 47.0652 23.088C47.4972 22.352 47.7132 21.456 47.7132 20.4C47.7132 19.344 47.5052 18.448 47.0892 17.712C46.6732 16.976 46.1292 16.432 45.4572 16.08C44.7852 15.712 44.0572 15.528 43.2732 15.528C42.4732 15.528 41.7372 15.712 41.0652 16.08C40.4092 16.432 39.8812 16.976 39.4812 17.712C39.0812 18.448 38.8812 19.344 38.8812 20.4C38.8812 21.472 39.0732 22.376 39.4572 23.112C39.8572 23.848 40.3852 24.4 41.0412 24.768C41.6972 25.12 42.4172 25.296 43.2012 25.296ZM68.6328 13.608C69.6568 13.608 70.5688 13.824 71.3688 14.256C72.1688 14.672 72.8008 15.304 73.2648 16.152C73.7288 17 73.9608 18.032 73.9608 19.248V27H71.8008V19.56C71.8008 18.248 71.4728 17.248 70.8168 16.56C70.1768 15.856 69.3048 15.504 68.2008 15.504C67.0648 15.504 66.1608 15.872 65.4888 16.608C64.8168 17.328 64.4808 18.376 64.4808 19.752V27H62.3208V19.56C62.3208 18.248 61.9928 17.248 61.3368 16.56C60.6968 15.856 59.8248 15.504 58.7208 15.504C57.5848 15.504 56.6808 15.872 56.0088 16.608C55.3368 17.328 55.0008 18.376 55.0008 19.752V27H52.8168V13.848H55.0008V15.744C55.4328 15.056 56.0088 14.528 56.7288 14.16C57.4648 13.792 58.2728 13.608 59.1528 13.608C60.2568 13.608 61.2328 13.856 62.0808 14.352C62.9288 14.848 63.5608 15.576 63.9768 16.536C64.3448 15.608 64.9528 14.888 65.8008 14.376C66.6488 13.864 67.5928 13.608 68.6328 13.608ZM89.5433 19.92C89.5433 20.336 89.5193 20.776 89.4713 21.24H78.9593C79.0393 22.536 79.4793 23.552 80.2793 24.288C81.0953 25.008 82.0793 25.368 83.2313 25.368C84.1753 25.368 84.9593 25.152 85.5833 24.72C86.2233 24.272 86.6713 23.68 86.9273 22.944H89.2793C88.9273 24.208 88.2233 25.24 87.1673 26.04C86.1113 26.824 84.7993 27.216 83.2313 27.216C81.9833 27.216 80.8633 26.936 79.8713 26.376C78.8953 25.816 78.1273 25.024 77.5673 24C77.0073 22.96 76.7273 21.76 76.7273 20.4C76.7273 19.04 76.9993 17.848 77.5433 16.824C78.0873 15.8 78.8473 15.016 79.8233 14.472C80.8153 13.912 81.9513 13.632 83.2313 13.632C84.4793 13.632 85.5833 13.904 86.5433 14.448C87.5033 14.992 88.2393 15.744 88.7513 16.704C89.2793 17.648 89.5433 18.72 89.5433 19.92ZM87.2873 19.464C87.2873 18.632 87.1033 17.92 86.7353 17.328C86.3673 16.72 85.8633 16.264 85.2233 15.96C84.5993 15.64 83.9033 15.48 83.1353 15.48C82.0313 15.48 81.0873 15.832 80.3033 16.536C79.5353 17.24 79.0953 18.216 78.9833 19.464H87.2873Z" fill="#0B0338"/>
<path d="M91.6101 20.4C91.6101 19.04 91.8821 17.856 92.4261 16.848C92.9701 15.824 93.7221 15.032 94.6821 14.472C95.6581 13.912 96.7701 13.632 98.0181 13.632C99.6341 13.632 100.962 14.024 102.002 14.808C103.058 15.592 103.754 16.68 104.09 18.072H101.738C101.514 17.272 101.074 16.64 100.418 16.176C99.7781 15.712 98.9781 15.48 98.0181 15.48C96.7701 15.48 95.7621 15.912 94.9941 16.776C94.2261 17.624 93.8421 18.832 93.8421 20.4C93.8421 21.984 94.2261 23.208 94.9941 24.072C95.7621 24.936 96.7701 25.368 98.0181 25.368C98.9781 25.368 99.7781 25.144 100.418 24.696C101.058 24.248 101.498 23.608 101.738 22.776H104.09C103.738 24.12 103.034 25.2 101.978 26.016C100.922 26.816 99.6021 27.216 98.0181 27.216C96.7701 27.216 95.6581 26.936 94.6821 26.376C93.7221 25.816 92.9701 25.024 92.4261 24C91.8821 22.976 91.6101 21.776 91.6101 20.4ZM112.74 27.216C111.508 27.216 110.388 26.936 109.38 26.376C108.388 25.816 107.604 25.024 107.028 24C106.468 22.96 106.188 21.76 106.188 20.4C106.188 19.056 106.476 17.872 107.052 16.848C107.644 15.808 108.444 15.016 109.452 14.472C110.46 13.912 111.588 13.632 112.836 13.632C114.084 13.632 115.212 13.912 116.22 14.472C117.228 15.016 118.02 15.8 118.596 16.824C119.188 17.848 119.484 19.04 119.484 20.4C119.484 21.76 119.18 22.96 118.572 24C117.98 25.024 117.172 25.816 116.148 26.376C115.124 26.936 113.988 27.216 112.74 27.216ZM112.74 25.296C113.524 25.296 114.26 25.112 114.948 24.744C115.636 24.376 116.188 23.824 116.604 23.088C117.036 22.352 117.252 21.456 117.252 20.4C117.252 19.344 117.044 18.448 116.628 17.712C116.212 16.976 115.668 16.432 114.996 16.08C114.324 15.712 113.596 15.528 112.812 15.528C112.012 15.528 111.276 15.712 110.604 16.08C109.948 16.432 109.42 16.976 109.02 17.712C108.62 18.448 108.42 19.344 108.42 20.4C108.42 21.472 108.612 22.376 108.996 23.112C109.396 23.848 109.924 24.4 110.58 24.768C111.236 25.12 111.956 25.296 112.74 25.296ZM138.172 13.608C139.196 13.608 140.108 13.824 140.908 14.256C141.708 14.672 142.34 15.304 142.804 16.152C143.268 17 143.5 18.032 143.5 19.248V27H141.34V19.56C141.34 18.248 141.012 17.248 140.356 16.56C139.716 15.856 138.844 15.504 137.74 15.504C136.604 15.504 135.7 15.872 135.028 16.608C134.356 17.328 134.02 18.376 134.02 19.752V27H131.86V19.56C131.86 18.248 131.532 17.248 130.876 16.56C130.236 15.856 129.364 15.504 128.26 15.504C127.124 15.504 126.22 15.872 125.548 16.608C124.876 17.328 124.54 18.376 124.54 19.752V27H122.356V13.848H124.54V15.744C124.972 15.056 125.548 14.528 126.268 14.16C127.004 13.792 127.812 13.608 128.692 13.608C129.796 13.608 130.772 13.856 131.62 14.352C132.468 14.848 133.1 15.576 133.516 16.536C133.884 15.608 134.492 14.888 135.34 14.376C136.188 13.864 137.132 13.608 138.172 13.608ZM148.21 11.712C147.794 11.712 147.442 11.568 147.154 11.28C146.866 10.992 146.722 10.64 146.722 10.224C146.722 9.808 146.866 9.456 147.154 9.168C147.442 8.88 147.794 8.736 148.21 8.736C148.61 8.736 148.946 8.88 149.218 9.168C149.506 9.456 149.65 9.808 149.65 10.224C149.65 10.64 149.506 10.992 149.218 11.28C148.946 11.568 148.61 11.712 148.21 11.712ZM149.266 13.848V27H147.082V13.848H149.266ZM159.397 13.608C160.997 13.608 162.293 14.096 163.285 15.072C164.277 16.032 164.773 17.424 164.773 19.248V27H162.613V19.56C162.613 18.248 162.285 17.248 161.629 16.56C160.973 15.856 160.077 15.504 158.941 15.504C157.789 15.504 156.869 15.864 156.181 16.584C155.509 17.304 155.173 18.352 155.173 19.728V27H152.989V13.848H155.173V15.72C155.605 15.048 156.189 14.528 156.925 14.16C157.677 13.792 158.501 13.608 159.397 13.608ZM181.012 15.12C180.548 14.144 179.876 13.392 178.996 12.864C178.116 12.32 177.092 12.048 175.924 12.048C174.756 12.048 173.7 12.32 172.756 12.864C171.828 13.392 171.092 14.16 170.548 15.168C170.02 16.16 169.756 17.312 169.756 18.624C169.756 19.936 170.02 21.088 170.548 22.08C171.092 23.072 171.828 23.84 172.756 24.384C173.7 24.912 174.756 25.176 175.924 25.176C177.556 25.176 178.9 24.688 179.956 23.712C181.012 22.736 181.628 21.416 181.804 19.752H175.132V17.976H184.132V19.656C184.004 21.032 183.572 22.296 182.836 23.448C182.1 24.584 181.132 25.488 179.932 26.16C178.732 26.816 177.396 27.144 175.924 27.144C174.372 27.144 172.956 26.784 171.676 26.064C170.396 25.328 169.38 24.312 168.628 23.016C167.892 21.72 167.524 20.256 167.524 18.624C167.524 16.992 167.892 15.528 168.628 14.232C169.38 12.92 170.396 11.904 171.676 11.184C172.956 10.448 174.372 10.08 175.924 10.08C177.7 10.08 179.268 10.52 180.628 11.4C182.004 12.28 183.004 13.52 183.628 15.12H181.012Z" fill="#877723" fill-opacity="0.96"/>
</g>
<defs>
<filter id="filter0_d" x="16.848" y="8.73599" width="171.284" height="26.48" filterUnits="userSpaceOnUse" color-interpolation-filters="sRGB">
<feFlood flood-opacity="0" result="BackgroundImageFix"/>
<feColorMatrix in="SourceAlpha" type="matrix" values="0 0 0 0 0 0 0 0 0 0 0 0 0 0 0 0 0 0 127 0"/>
<feOffset dy="4"/>
<feGaussianBlur stdDeviation="2"/>
<feColorMatrix type="matrix" values="0 0 0 0 0 0 0 0 0 0 0 0 0 0 0 0 0 0 0.25 0"/>
<feBlend mode="normal" in2="BackgroundImageFix" result="effect1_dropShadow"/>
<feBlend mode="normal" in="SourceGraphic" in2="effect1_dropShadow" result="shape"/>
</filter>
</defs>
</svg>



